<?xml version="1.0" encoding="UTF-8"?>
<svg width="256px" height="256px" viewBox="0 0 256 256" version="1.1" xmlns="http://www.w3.org/2000/svg" xmlns:xlink="http://www.w3.org/1999/xlink">
    <title>favicon</title>
    <g id="favicon" stroke="none" stroke-width="1" fill="none" fill-rule="evenodd">
        <circle id="Oval" fill="#FFFFFF" cx="128" cy="127" r="125"></circle>
        <path d="M123.040791,18.493677 C125.240359,17.2237557 127.950339,17.2237557 130.149907,18.493677 L130.149907,18.493677 L218.436864,69.4661753 C219.536648,70.1011359 220.425287,71.0053441 221.038981,72.0682924 C221.652674,73.1312408 221.991422,74.3529292 221.991422,75.6228506 L221.991422,75.6228506 L221.991422,177.567847 C221.991422,178.837768 221.652674,180.059457 221.038981,181.122405 C220.425287,182.185354 219.536648,183.089562 218.436864,183.724522 L218.436864,183.724522 L130.149907,234.697021 C129.050123,235.331981 127.822736,235.649462 126.595349,235.649462 C125.367962,235.649462 124.140575,235.331981 123.040791,234.697021 L123.040791,234.697021 L34.7538339,183.724522 C33.6540498,183.089562 32.7654102,182.185354 32.1517167,181.122405 C31.5380232,180.059457 31.1992758,178.837768 31.1992758,177.567847 L31.1992758,177.567847 L31.1992758,75.6228506 C31.1992758,73.0830079 32.5542657,70.7360966 34.7538339,69.4661753 L34.7538339,69.4661753 Z" id="Polygon-Copy-2" stroke="#000000" stroke-width="7"></path>
        <path d="M123.040791,18.493677 C125.240359,17.2237557 127.950339,17.2237557 130.149907,18.493677 L130.149907,18.493677 L218.436864,69.4661753 C219.536648,70.1011359 220.425287,71.0053441 221.038981,72.0682924 C221.652674,73.1312408 221.991422,74.3529292 221.991422,75.6228506 L221.991422,75.6228506 L221.991422,177.567847 C221.991422,178.837768 221.652674,180.059457 221.038981,181.122405 C220.425287,182.185354 219.536648,183.089562 218.436864,183.724522 L218.436864,183.724522 L130.149907,234.697021 C129.050123,235.331981 127.822736,235.649462 126.595349,235.649462 C125.367962,235.649462 124.140575,235.331981 123.040791,234.697021 L123.040791,234.697021 L34.7538339,183.724522 C33.6540498,183.089562 32.7654102,182.185354 32.1517167,181.122405 C31.5380232,180.059457 31.1992758,178.837768 31.1992758,177.567847 L31.1992758,177.567847 L31.1992758,75.6228506 C31.1992758,73.0830079 32.5542657,70.7360966 34.7538339,69.4661753 L34.7538339,69.4661753 Z" id="Polygon-Copy-3" stroke="#000000" stroke-width="7" opacity="0.75" transform="translate(126.595349, 126.595349) rotate(30.000000) translate(-126.595349, -126.595349) "></path>
        <path d="M158.593155,62.1739147 L159.58313,61.7953488 L162.789215,70.8981424 L162.196803,71.130141 C161.856652,71.2633503 161.523375,71.3985236 161.196902,71.5357551 L160.553012,71.81299 C152.088231,75.5467885 148.429661,80.7887791 148.25553,89.3244855 L148.250631,89.6461219 L148.248962,89.975926 L148.248787,96.3483378 L148.564058,96.3870077 C158.177694,97.5864713 166.963255,99.6836577 174.491511,102.565637 L175.193588,102.838119 L175.867897,103.106964 C176.160826,103.223565 176.451129,103.341133 176.738794,103.459658 L177.593863,103.818094 C178.158615,104.058953 178.712766,104.303599 179.256218,104.551953 L180.06336,104.927255 C180.462907,105.116286 180.856408,105.30738 181.243823,105.500503 L182.010526,105.889444 C192.756847,111.437487 198.595349,118.596207 198.595349,126.594056 C198.595349,135.062367 192.049762,142.589924 180.06241,148.261234 L179.255204,148.636561 C178.168211,149.133304 177.038416,149.61522 175.866593,150.081665 C168.127836,153.141605 159.190904,155.380303 149.513265,156.675615 L148.60383,156.794282 L148.248787,156.837754 L148.248962,163.212186 C148.248962,176.487196 142.062438,185.524371 129.451931,190.705325 L129.067828,190.861143 L128.675851,191.016142 L127.69177,191.395349 L124.484775,182.289969 L125.077186,182.05797 C134.714827,178.283706 138.833446,172.932814 139.018459,163.863626 L139.023358,163.541989 L139.025028,163.212186 L139.025018,157.677267 L138.259961,157.737299 C135.365457,157.949808 132.470932,158.082627 129.576395,158.135755 L128.129125,158.155678 L126.681854,158.162318 C123.085472,158.162318 119.415416,158.039456 115.946308,157.801156 L114.797758,157.717458 L114.338025,157.679649 L114.338682,163.212186 C114.338682,176.430705 108.04471,185.500512 95.3723737,190.703976 L94.9864111,190.860474 L94.5925852,191.016151 L93.6084686,191.395349 L90.4014824,182.289969 L90.993894,182.05797 C100.631535,178.283706 104.750154,172.932814 104.935167,163.863626 L104.940066,163.541989 L104.941735,163.212186 L104.941503,156.839342 L104.62664,156.801104 C95.0130029,155.60164 86.2274429,153.504454 78.6991866,150.622474 L77.9971092,150.349993 L76.8884754,149.906721 L76.0313074,149.553203 L75.1895228,149.193531 C61.9835148,143.450445 54.5953488,135.424629 54.5953488,126.594056 C54.5953488,119.436644 59.449026,112.807919 68.3208128,107.494634 L69.0202387,107.083288 C70.3173753,106.334085 71.6960712,105.612145 73.1538903,104.919762 L73.9568968,104.545043 C75.0379954,104.049363 76.1607102,103.569537 77.3241039,103.106447 C85.0628617,100.046507 93.9997929,97.807809 103.677433,96.5124971 L104.586868,96.3938292 L104.941503,96.349132 L104.941735,89.975926 C104.941735,76.6710125 111.157003,67.6502793 123.90087,62.4811235 L124.289047,62.3256609 L124.685203,62.171019 L125.672852,61.7953488 L128.878934,70.8981424 L128.286523,71.130141 C118.648882,74.9044058 114.530263,80.2552975 114.34525,89.3244855 L114.34035,89.6461219 L114.338682,89.975926 L114.338025,95.5104132 L115.103748,95.4508129 C117.998251,95.2383036 120.892777,95.1054844 123.787314,95.0523566 L125.234583,95.0324336 L126.681854,95.0257927 C130.278237,95.0257927 133.948293,95.1486558 137.417401,95.3869551 L138.565951,95.4706535 L139.025018,95.5080305 L139.025028,89.975926 C139.025028,76.5678113 145.335787,67.483329 158.201285,62.3289067 L158.593155,62.1739147 Z M126.681854,104.753437 C123.015161,104.753437 119.464478,104.872543 116.031642,105.110563 L114.89173,105.194307 L114.338025,105.239075 L114.338025,147.948605 L114.704974,147.978955 C118.203298,148.25378 121.959775,148.40769 125.67104,148.431433 L126.681854,148.434674 C130.348548,148.434674 133.89923,148.315568 137.332067,148.077549 L138.471979,147.993805 L139.025018,147.947811 L139.025018,105.239075 L138.658735,105.209156 C135.160411,104.934332 131.403934,104.780421 127.692669,104.756678 L126.681854,104.753437 Z M104.941503,147.091619 L104.941503,106.095267 L104.8325,106.111032 C95.8152601,107.374201 87.5211191,109.469015 80.7122855,112.212328 L80.328057,112.367188 L79.571434,112.679942 C79.0723038,112.889768 78.5837784,113.102208 78.1060634,113.317056 L77.3976245,113.641109 C77.2809112,113.695411 77.16488,113.749856 77.0495341,113.804443 L76.3657079,114.133628 C76.1405242,114.243903 75.9181073,114.354716 75.6984831,114.466042 L75.048014,114.801532 L74.4144549,115.139945 C73.3727003,115.706316 72.4020467,116.284225 71.5057087,116.870475 L70.9768494,117.2232 C70.8902011,117.282146 70.8043023,117.341169 70.7191564,117.400265 L70.2173399,117.755706 C66.1933666,120.665286 63.9922954,123.73676 63.9922954,126.594056 C63.9922954,129.218103 65.8486757,132.022788 69.2680092,134.716619 L69.7331566,135.075114 C69.8912758,135.194376 70.0524566,135.313394 70.2166732,135.432141 L70.7184046,135.787548 C70.8035359,135.846639 70.8894196,135.905656 70.9760526,135.964596 L71.5048164,136.317283 C71.9529028,136.610375 72.4195604,136.901379 72.9043867,137.189895 L73.4948736,137.534894 C73.6945923,137.649478 73.8971923,137.763639 74.1026478,137.877351 L74.7275548,138.217112 L75.3694401,138.554024 C75.5862144,138.665836 75.8057926,138.777147 76.0281491,138.887933 L76.7035273,139.218685 C76.8174708,139.273539 76.9321024,139.328255 77.0474189,139.38283 L77.747511,139.70856 C77.8655542,139.762558 77.9842758,139.816408 78.1036727,139.870108 L78.828131,140.19047 L79.56864,140.507062 C79.6933872,140.559505 79.8187967,140.611784 79.9448653,140.663896 L80.709161,140.974544 C87.5408208,143.661521 95.3812211,145.685482 103.899292,146.942731 L104.941503,147.091619 Z M148.424155,106.120362 L148.248787,106.096061 L148.248787,147.091619 L148.358197,147.077079 C157.102187,145.852189 165.166239,143.845292 171.855357,141.223384 L172.86264,140.820924 L173.619263,140.50817 L174.359979,140.191496 C174.482098,140.138399 174.603547,140.085145 174.724324,140.031737 L175.44089,139.709471 L176.141163,139.383669 C176.371855,139.274496 176.599806,139.164759 176.82499,139.054484 L177.492214,138.722069 C178.919772,137.998451 180.229341,137.253173 181.413861,136.493258 L181.951658,136.141515 L182.471541,135.787846 C186.813984,132.773915 189.198402,129.567976 189.198402,126.594056 C189.198402,123.678448 186.906574,120.53983 182.725426,117.578055 L182.214645,117.223516 C182.041379,117.105636 181.865115,116.988065 181.685881,116.870829 L181.139289,116.520146 C180.954137,116.403603 180.76604,116.28742 180.575023,116.171622 L179.993238,115.825409 C179.599576,115.595405 179.194337,115.367045 178.777728,115.140534 L178.144312,114.802178 C178.03733,114.746025 177.929644,114.689994 177.821257,114.634088 L177.162548,114.300179 C177.05137,114.244786 176.939497,114.189525 176.826933,114.134398 L176.143279,113.805281 C176.027962,113.750707 175.91196,113.696273 175.795278,113.641983 L175.087025,113.318004 C174.251246,112.942108 173.382383,112.573597 172.481536,112.213567 C165.41769,109.435268 157.277315,107.366502 148.424155,106.120362 Z" id="newton" fill="#000000" fill-rule="nonzero"></path>
    </g>
</svg>