<?xml version="1.0" encoding="UTF-8"?>
<svg width="116px" height="32px" viewBox="0 0 116 32" version="1.1" xmlns="http://www.w3.org/2000/svg" xmlns:xlink="http://www.w3.org/1999/xlink">
    <title>logo</title>
    <g id="logo" stroke="none" stroke-width="1" fill="none" fill-rule="evenodd">
        <path d="M16.5382558,1.04120831 C16.8239841,0.876243001 17.1760159,0.876243001 17.4617442,1.04120831 L17.4617442,1.04120831 L29.7238215,8.12072196 L30.1855657,23.0795136 L17.4617442,30.9587917 L4.27617848,23.879278 C3.99045018,23.7143127 3.81443429,23.4094443 3.81443429,23.0795136 L3.81443429,23.0795136 L3.81443429,8.92048635 C3.81443429,8.59055573 3.99045018,8.28568727 4.27617848,8.12072196 L4.27617848,8.12072196 Z" id="Polygon-Copy-2" stroke="#000000" stroke-width="1.1"></path>
        <path d="M16.5382558,1.04120831 C16.8239841,0.876243001 17.1760159,0.876243001 17.4617442,1.04120831 L17.4617442,1.04120831 L29.7238215,8.12072196 L30.1855657,23.0795136 L17.4617442,30.9587917 L4.27617848,23.879278 C3.99045018,23.7143127 3.81443429,23.4094443 3.81443429,23.0795136 L3.81443429,23.0795136 L3.81443429,8.92048635 C3.81443429,8.59055573 3.99045018,8.28568727 4.27617848,8.12072196 L4.27617848,8.12072196 Z" id="Polygon-Copy-3" stroke="#000000" stroke-width="1.1" opacity="0.75" transform="translate(17.000000, 16.000000) rotate(30.000000) translate(-17.000000, -16.000000) "></path>
        <path d="M21.4441397,7.05257859 L21.5816363,7 L22.0269258,8.26427688 L21.9446464,8.29649891 C21.8974032,8.31500021 21.8511147,8.33377427 21.8057713,8.3528342 L21.7163421,8.39133905 C20.540678,8.90992218 20.0325433,9.63797642 20.0083585,10.8234912 L20.0076781,10.8681629 L20.0074463,10.9139691 L20.007422,11.7990262 L20.0512095,11.8043971 C21.3864369,11.9709892 22.6066536,12.2622651 23.6522447,12.6625401 L23.7497554,12.7003847 L23.8434095,12.7377243 C23.8840941,12.7539189 23.924414,12.7702478 23.9643674,12.7867096 L24.0831269,12.8364924 C24.1615648,12.869945 24.2385302,12.9039236 24.3140096,12.9384173 L24.4261127,12.9905425 C24.4816053,13.0167968 24.5362583,13.0433376 24.5900659,13.0701603 L24.6965524,13.1241799 C26.1890969,13.8947414 27,14.889008 27,15.9998204 C27,17.1759747 26.0908907,18.2214687 24.4259807,19.0091507 L24.3138687,19.0612795 C24.1628975,19.1302716 24.0059816,19.1972043 23.8432284,19.2619883 C22.7684009,19.68698 21.5271605,19.9979102 20.1830439,20.1778147 L20.0567335,20.1942963 L20.007422,20.200334 L20.0074463,21.0856718 C20.0074463,22.9294232 19.1482068,24.1845865 17.3967476,24.9041633 L17.3433999,24.9258047 L17.2889587,24.9473323 L17.1522808,25 L16.7068647,23.7353639 L16.7891441,23.7031419 C18.1277053,23.1789384 18.6997357,22.435759 18.725432,21.1761496 L18.7261124,21.1314779 L18.7263443,21.0856718 L18.7263429,20.316933 L18.620085,20.3252708 C18.2180706,20.354786 17.8160532,20.3732331 17.4140342,20.380612 L17.2130245,20.383379 L17.0120147,20.3843013 C16.5125171,20.3843013 16.0027871,20.3672371 15.5209666,20.3341399 L15.3614457,20.3225152 L15.297594,20.317264 L15.2976851,21.0856718 C15.2976851,22.9215772 14.4235223,24.1812726 12.6634757,24.903976 L12.6098698,24.9257119 L12.5551717,24.9473336 L12.4184889,25 L11.9730741,23.7353639 L12.0553535,23.7031419 C13.3939147,23.1789384 13.9659451,22.435759 13.9916414,21.1761496 L13.9923219,21.1314779 L13.9925536,21.0856718 L13.9925215,20.2005546 L13.9487904,20.1952438 C12.6135631,20.0286516 11.3933464,19.7373757 10.3477552,19.3371007 L10.2502445,19.2992561 L10.0962676,19.2376906 L9.97721647,19.1885908 L9.86030194,19.1386364 C8.02613416,18.3409856 7,17.2262889 7,15.9998204 C7,15.0057354 7.67412182,14.0850792 8.90631444,13.347123 L9.00345692,13.2899916 C9.18361478,13.1859356 9.37510033,13.0856662 9.57757521,12.9895018 L9.68910388,12.9374575 C9.83925647,12.8686131 9.99518908,12.8019705 10.1567715,12.7376525 C11.231599,12.3126608 12.4728394,12.0017306 13.8169561,11.8218261 L13.9432665,11.8053445 L13.9925215,11.7991365 L13.9925536,10.9139691 C13.9925536,9.06606439 14.8557853,7.81318478 16.6257668,7.09524648 L16.6796802,7.07365445 L16.734702,7.05217641 L16.8718754,7 L17.3171646,8.26427688 L17.2348853,8.29649891 C15.8963241,8.82070236 15.3242936,9.56388175 15.2985973,10.8234912 L15.2979169,10.8681629 L15.2976851,10.9139691 L15.297594,11.6826478 L15.4039444,11.67437 C15.8059587,11.6448548 16.2079761,11.6264077 16.6099952,11.6190289 L16.8110048,11.6162618 L17.0120147,11.6153394 C17.5115122,11.6153394 18.0212422,11.6324037 18.5030628,11.6655009 L18.6625836,11.6771256 L18.7263429,11.6823169 L18.7263443,10.9139691 C18.7263443,9.0517309 19.6028387,7.78999724 21.3897133,7.07410526 L21.4441397,7.05257859 Z M17.0120147,12.9664011 C16.5027517,12.9664011 16.0096013,12.9829436 15.5328185,13.0160019 L15.3744974,13.027633 L15.297594,13.0338508 L15.297594,18.96573 L15.348559,18.9699454 C15.8344374,19.0081154 16.3561703,19.0294918 16.8716238,19.0327895 L17.0120147,19.0332397 C17.5212776,19.0332397 18.014428,19.0166972 18.4912109,18.9836389 L18.6495319,18.9720077 L18.7263429,18.9656197 L18.7263429,13.0338508 L18.6754704,13.0296954 C18.189592,12.9915255 17.6678591,12.970149 17.1524056,12.9668513 L17.0120147,12.9664011 Z M13.9925215,18.8467042 L13.9925215,13.1527664 L13.9773822,13.154956 C12.7249877,13.3303961 11.5730237,13.6213425 10.6273523,14.0023583 L10.5739872,14.0238665 L10.4689007,14.0673046 C10.3995771,14.0964471 10.3317263,14.1259526 10.265377,14.1557927 L10.1669827,14.2008001 C10.1507725,14.2083419 10.1346571,14.2159038 10.1186368,14.2234853 L10.023661,14.2692054 C9.99238547,14.2845214 9.96149424,14.2999121 9.93099087,14.3153741 L9.84064794,14.3619699 L9.75265362,14.4089717 C9.60796548,14.4876343 9.47315249,14.5678995 9.34866109,14.649323 L9.27520842,14.6983127 C9.26317392,14.7064996 9.25124354,14.7146972 9.23941771,14.7229051 L9.16972099,14.7722718 C8.61083579,15.1763801 8.30513147,15.6029738 8.30513147,15.9998204 C8.30513147,16.3642714 8.56296207,16.753811 9.0378695,17.1279542 L9.1024733,17.1777451 C9.1244343,17.1943093 9.14682053,17.2108396 9.16962839,17.2273323 L9.23931331,17.2766943 C9.25113709,17.2849014 9.26306538,17.2930982 9.27509774,17.3012843 L9.34853715,17.3502686 C9.41077138,17.3909759 9.47558494,17.4313931 9.54292193,17.4714647 L9.62493399,17.5193812 C9.65267271,17.5352958 9.6808116,17.5511514 9.70934707,17.5669447 L9.79613972,17.6141337 L9.88529045,17.6609271 C9.915398,17.6764565 9.94589497,17.6919164 9.97677781,17.7073033 L10.0705803,17.7532412 C10.0864058,17.7608598 10.1023269,17.7684592 10.1183431,17.7760391 L10.2155781,17.8212794 C10.231973,17.8287791 10.2484621,17.8362582 10.265045,17.8437165 L10.3656642,17.8882113 L10.4685127,17.9321824 C10.4858387,17.9394661 10.5032566,17.9467271 10.5207662,17.9539649 L10.6269184,17.9971105 C11.57576,18.3703017 12.6647045,18.6514074 13.8477699,18.8260253 L13.9925215,18.8467042 Z M20.0317787,13.1562518 L20.007422,13.1528767 L20.007422,18.8467042 L20.0226178,18.8446848 C21.2370609,18.6745611 22.3570681,18.3958254 23.2861122,18.0316715 L23.4260127,17.9757743 L23.5310992,17.9323362 L23.6339764,17.8883537 C23.6509374,17.8809791 23.6678053,17.8735827 23.6845799,17.866165 L23.7841029,17.8214058 L23.8813631,17.7761555 C23.9134036,17.7609926 23.9450635,17.7457514 23.976339,17.7304354 L24.0690091,17.6842668 C24.267281,17.5837642 24.4491656,17.4802533 24.6136823,17.3747097 L24.6883762,17.3258564 L24.7605823,17.2767357 C25.3636994,16.8581342 25.6948685,16.4128649 25.6948685,15.9998204 C25.6948685,15.5948748 25.3765591,15.1589558 24.795844,14.747598 L24.7249022,14.6983565 C24.7008375,14.6819844 24.6763565,14.6656551 24.6514628,14.6493722 L24.5755473,14.6006663 C24.5498317,14.5844797 24.5237071,14.5683432 24.4971769,14.5522601 L24.4163735,14.504175 C24.3616982,14.4722301 24.3054151,14.4405134 24.2475527,14.4090535 L24.1595783,14.3620596 C24.1447196,14.3542606 24.1297633,14.3464785 24.1147095,14.3387138 L24.0232222,14.2923375 C24.0077807,14.2846441 23.9922428,14.2769689 23.9766089,14.2693124 L23.8816569,14.2236017 C23.8656407,14.2160219 23.8495293,14.2084617 23.8333234,14.2009215 L23.734955,14.1559243 C23.6188747,14.1037166 23.4981991,14.0525344 23.3730816,14.0025303 C22.3919918,13.6166555 21.2613842,13.3293269 20.0317787,13.1562518 Z" id="newton" fill="#000000" fill-rule="nonzero"></path>
        <path d="M37.37,14 L37.37,6.692 L43.25,14 L44.398,14 L44.398,4.2 L42.998,4.2 L42.998,11.508 L37.118,4.2 L35.97,4.2 L35.97,14 L37.37,14 Z M50.446,14.084 C51.678,14.084 52.7,13.664 53.372,12.88 L52.63,12.012 C52.084,12.614 51.356,12.908 50.488,12.908 C49.018,12.908 47.968,12.04 47.8,10.738 L53.82,10.738 C53.834,10.612 53.848,10.444 53.848,10.332 C53.848,8.05 52.322,6.51 50.18,6.51 C48.038,6.51 46.456,8.092 46.456,10.29 C46.456,12.502 48.052,14.084 50.446,14.084 Z M52.56,9.772 L47.8,9.772 C47.94,8.512 48.892,7.644 50.18,7.644 C51.482,7.644 52.42,8.526 52.56,9.772 Z M58.426,14 L60.596,8.372 L62.738,14 L64.026,14 L66.798,6.58 L65.594,6.58 L63.382,12.516 L61.184,6.58 L60.05,6.58 L57.81,12.488 L55.654,6.58 L54.38,6.58 L57.138,14 L58.426,14 Z M73.028,14 C75.506,14 76.78,13.034 76.78,11.354 C76.78,10.052 76.052,9.226 74.946,8.918 C75.716,8.54 76.262,7.798 76.262,6.734 C76.262,5.152 75.002,4.2 72.748,4.2 L68.352,4.2 L68.352,14 L73.028,14 Z M72.622,8.47 L69.752,8.47 L69.752,5.334 L72.622,5.334 C74.05,5.334 74.862,5.866 74.862,6.902 C74.862,7.938 74.05,8.47 72.622,8.47 Z M72.972,12.866 L69.752,12.866 L69.752,9.604 L72.972,9.604 C74.526,9.604 75.366,10.108 75.366,11.242 C75.366,12.376 74.526,12.866 72.972,12.866 Z M80.098,14 L80.098,10.304 C80.098,8.68 80.994,7.798 82.436,7.798 C82.534,7.798 82.632,7.798 82.744,7.812 L82.744,6.51 C81.442,6.51 80.518,6.958 80.042,7.826 L80.042,6.58 L78.754,6.58 L78.754,14 L80.098,14 Z M85.068,5.152 C85.6,5.152 85.978,4.76 85.978,4.256 C85.978,3.78 85.586,3.402 85.068,3.402 C84.55,3.402 84.158,3.794 84.158,4.284 C84.158,4.774 84.55,5.152 85.068,5.152 Z M85.74,14 L85.74,6.58 L84.396,6.58 L84.396,14 L85.74,14 Z M91.368,14.084 C92.46,14.084 93.412,13.664 94.014,12.824 L94.014,14 L95.302,14 L95.302,3.612 L93.958,3.612 L93.958,7.7 C93.342,6.902 92.418,6.51 91.368,6.51 C89.198,6.51 87.616,8.022 87.616,10.29 C87.616,12.558 89.198,14.084 91.368,14.084 Z M91.48,12.908 C90.052,12.908 88.974,11.872 88.974,10.29 C88.974,8.708 90.052,7.686 91.48,7.686 C92.894,7.686 93.972,8.708 93.972,10.29 C93.972,11.872 92.894,12.908 91.48,12.908 Z M101.098,16.8 C103.618,16.8 104.948,15.61 104.948,12.992 L104.948,6.58 L103.674,6.58 L103.674,7.728 C103.044,6.916 102.036,6.51 100.93,6.51 C98.788,6.51 97.164,7.952 97.164,10.094 C97.164,12.236 98.788,13.692 100.93,13.692 C101.994,13.692 102.96,13.314 103.604,12.544 L103.604,13.132 C103.604,14.812 102.806,15.624 101.056,15.624 C99.964,15.624 98.886,15.246 98.2,14.658 L97.556,15.694 C98.368,16.422 99.74,16.8 101.098,16.8 Z M101.084,12.516 C99.586,12.516 98.522,11.522 98.522,10.094 C98.522,8.652 99.586,7.686 101.084,7.686 C102.568,7.686 103.632,8.652 103.632,10.094 C103.632,11.522 102.568,12.516 101.084,12.516 Z M110.814,14.084 C112.046,14.084 113.068,13.664 113.74,12.88 L112.998,12.012 C112.452,12.614 111.724,12.908 110.856,12.908 C109.386,12.908 108.336,12.04 108.168,10.738 L114.188,10.738 C114.202,10.612 114.216,10.444 114.216,10.332 C114.216,8.05 112.69,6.51 110.548,6.51 C108.406,6.51 106.824,8.092 106.824,10.29 C106.824,12.502 108.42,14.084 110.814,14.084 Z M112.928,9.772 L108.168,9.772 C108.308,8.512 109.26,7.644 110.548,7.644 C111.85,7.644 112.788,8.526 112.928,9.772 Z" id="NewBridge" fill="#000000" fill-rule="nonzero"></path>
        <path d="M36.684,28 L36.684,24.108 C36.684,22.372 37.734,21.266 39.456,21.266 C40.94,21.266 41.822,22.134 41.822,23.786 L41.822,28 L42.522,28 L42.522,23.73 C42.522,21.686 41.332,20.636 39.554,20.636 C38.168,20.636 37.146,21.252 36.656,22.274 L36.656,20.692 L35.984,20.692 L35.984,28 L36.684,28 Z M48.388,28.056 C49.494,28.056 50.502,27.65 51.146,26.866 L50.74,26.404 C50.18,27.09 49.326,27.426 48.402,27.426 C46.652,27.426 45.378,26.25 45.308,24.514 L51.594,24.514 C51.594,24.444 51.608,24.374 51.608,24.318 C51.608,22.148 50.124,20.636 48.122,20.636 C46.12,20.636 44.622,22.176 44.622,24.346 C44.622,26.516 46.176,28.056 48.388,28.056 Z M50.922,23.968 L45.322,23.968 C45.434,22.372 46.568,21.252 48.122,21.252 C49.676,21.252 50.824,22.386 50.922,23.968 Z M55.906,28.056 C56.452,28.056 57.04,27.888 57.404,27.538 L57.11,27.048 C56.816,27.314 56.41,27.454 55.976,27.454 C55.08,27.454 54.618,26.936 54.618,25.998 L54.618,21.294 L56.942,21.294 L56.942,20.692 L54.618,20.692 L54.618,19.096 L53.918,19.096 L53.918,20.692 L52.574,20.692 L52.574,21.294 L53.918,21.294 L53.918,26.068 C53.918,27.3 54.618,28.056 55.906,28.056 Z M61.282,28 L63.76,21.658 L66.224,28 L66.882,28 L69.654,20.692 L69.01,20.692 L66.546,27.202 L64.068,20.692 L63.466,20.692 L60.974,27.216 L58.538,20.692 L57.866,20.692 L60.638,28 L61.282,28 Z M73.924,28.056 C76.024,28.056 77.578,26.516 77.578,24.346 C77.578,22.176 76.024,20.636 73.924,20.636 C71.824,20.636 70.27,22.176 70.27,24.346 C70.27,26.516 71.824,28.056 73.924,28.056 Z M73.924,27.426 C72.244,27.426 70.984,26.18 70.984,24.346 C70.984,22.512 72.244,21.266 73.924,21.266 C75.604,21.266 76.864,22.512 76.864,24.346 C76.864,26.18 75.604,27.426 73.924,27.426 Z M80.448,28 L80.448,24.192 C80.448,22.386 81.414,21.308 83.038,21.308 C83.094,21.308 83.15,21.322 83.206,21.322 L83.206,20.636 C81.834,20.636 80.868,21.224 80.42,22.288 L80.42,20.692 L79.748,20.692 L79.748,28 L80.448,28 Z M85.838,28 L85.838,25.83 L87.742,24.094 L90.85,28 L91.718,28 L88.26,23.646 L91.41,20.692 L90.514,20.692 L85.838,24.962 L85.838,17.612 L85.138,17.612 L85.138,28 L85.838,28 Z" id="network" fill="#000000" fill-rule="nonzero"></path>
    </g>
</svg>