<?xml version="1.0" encoding="UTF-8"?>
<svg width="110px" height="32px" viewBox="0 0 110 32" version="1.1" xmlns="http://www.w3.org/2000/svg" xmlns:xlink="http://www.w3.org/1999/xlink">
    <title>logo</title>
    <g id="logo" stroke="none" stroke-width="1" fill="none" fill-rule="evenodd">
        <path d="M37.665,15 L37.665,8.214 L43.125,15 L44.191,15 L44.191,5.9 L42.891,5.9 L42.891,12.686 L37.431,5.9 L36.365,5.9 L36.365,15 L37.665,15 Z M49.807,15.078 C50.951,15.078 51.9,14.688 52.524,13.96 L51.835,13.154 C51.328,13.713 50.652,13.986 49.846,13.986 C48.481,13.986 47.506,13.18 47.35,11.971 L52.94,11.971 C52.953,11.854 52.966,11.698 52.966,11.594 C52.966,9.475 51.549,8.045 49.56,8.045 C47.571,8.045 46.102,9.514 46.102,11.555 C46.102,13.609 47.584,15.078 49.807,15.078 Z M51.77,11.074 L47.35,11.074 C47.48,9.904 48.364,9.098 49.56,9.098 C50.769,9.098 51.64,9.917 51.77,11.074 Z M57.217,15 L59.232,9.774 L61.221,15 L62.417,15 L64.991,8.11 L63.873,8.11 L61.819,13.622 L59.778,8.11 L58.725,8.11 L56.645,13.596 L54.643,8.11 L53.46,8.11 L56.021,15 L57.217,15 Z M70.776,15 C73.077,15 74.26,14.103 74.26,12.543 C74.26,11.334 73.584,10.567 72.557,10.281 C73.272,9.93 73.779,9.241 73.779,8.253 C73.779,6.784 72.609,5.9 70.516,5.9 L66.434,5.9 L66.434,15 L70.776,15 Z M70.399,9.865 L67.734,9.865 L67.734,6.953 L70.399,6.953 C71.725,6.953 72.479,7.447 72.479,8.409 C72.479,9.371 71.725,9.865 70.399,9.865 Z M70.724,13.947 L67.734,13.947 L67.734,10.918 L70.724,10.918 C72.167,10.918 72.947,11.386 72.947,12.439 C72.947,13.492 72.167,13.947 70.724,13.947 Z M77.341,15 L77.341,11.568 C77.341,10.06 78.173,9.241 79.512,9.241 C79.603,9.241 79.694,9.241 79.798,9.254 L79.798,8.045 C78.589,8.045 77.731,8.461 77.289,9.267 L77.289,8.11 L76.093,8.11 L76.093,15 L77.341,15 Z M81.956,6.784 C82.45,6.784 82.801,6.42 82.801,5.952 C82.801,5.51 82.437,5.159 81.956,5.159 C81.475,5.159 81.111,5.523 81.111,5.978 C81.111,6.433 81.475,6.784 81.956,6.784 Z M82.58,15 L82.58,8.11 L81.332,8.11 L81.332,15 L82.58,15 Z M87.806,15.078 C88.82,15.078 89.704,14.688 90.263,13.908 L90.263,15 L91.459,15 L91.459,5.354 L90.211,5.354 L90.211,9.15 C89.639,8.409 88.781,8.045 87.806,8.045 C85.791,8.045 84.322,9.449 84.322,11.555 C84.322,13.661 85.791,15.078 87.806,15.078 Z M87.91,13.986 C86.584,13.986 85.583,13.024 85.583,11.555 C85.583,10.086 86.584,9.137 87.91,9.137 C89.223,9.137 90.224,10.086 90.224,11.555 C90.224,13.024 89.223,13.986 87.91,13.986 Z M96.841,17.6 C99.181,17.6 100.416,16.495 100.416,14.064 L100.416,8.11 L99.233,8.11 L99.233,9.176 C98.648,8.422 97.712,8.045 96.685,8.045 C94.696,8.045 93.188,9.384 93.188,11.373 C93.188,13.362 94.696,14.714 96.685,14.714 C97.673,14.714 98.57,14.363 99.168,13.648 L99.168,14.194 C99.168,15.754 98.427,16.508 96.802,16.508 C95.788,16.508 94.787,16.157 94.15,15.611 L93.552,16.573 C94.306,17.249 95.58,17.6 96.841,17.6 Z M96.828,13.622 C95.437,13.622 94.449,12.699 94.449,11.373 C94.449,10.034 95.437,9.137 96.828,9.137 C98.206,9.137 99.194,10.034 99.194,11.373 C99.194,12.699 98.206,13.622 96.828,13.622 Z M105.863,15.078 C107.007,15.078 107.956,14.688 108.58,13.96 L107.891,13.154 C107.384,13.713 106.708,13.986 105.902,13.986 C104.537,13.986 103.562,13.18 103.406,11.971 L108.996,11.971 C109.009,11.854 109.022,11.698 109.022,11.594 C109.022,9.475 107.605,8.045 105.616,8.045 C103.627,8.045 102.158,9.514 102.158,11.555 C102.158,13.609 103.64,15.078 105.863,15.078 Z M107.826,11.074 L103.406,11.074 C103.536,9.904 104.42,9.098 105.616,9.098 C106.825,9.098 107.696,9.917 107.826,11.074 Z" id="NewBridge" fill="#000000" fill-rule="nonzero"></path>
        <path d="M37.028,27 L37.028,23.386 C37.028,21.774 38.003,20.747 39.602,20.747 C40.98,20.747 41.799,21.553 41.799,23.087 L41.799,27 L42.449,27 L42.449,23.035 C42.449,21.137 41.344,20.162 39.693,20.162 C38.406,20.162 37.457,20.734 37.002,21.683 L37.002,20.214 L36.378,20.214 L36.378,27 L37.028,27 Z M47.896,27.052 C48.923,27.052 49.859,26.675 50.457,25.947 L50.08,25.518 C49.56,26.155 48.767,26.467 47.909,26.467 C46.284,26.467 45.101,25.375 45.036,23.763 L50.873,23.763 C50.873,23.698 50.886,23.633 50.886,23.581 C50.886,21.566 49.508,20.162 47.649,20.162 C45.79,20.162 44.399,21.592 44.399,23.607 C44.399,25.622 45.842,27.052 47.896,27.052 Z M50.249,23.256 L45.049,23.256 C45.153,21.774 46.206,20.734 47.649,20.734 C49.092,20.734 50.158,21.787 50.249,23.256 Z M54.877,27.052 C55.384,27.052 55.93,26.896 56.268,26.571 L55.995,26.116 C55.722,26.363 55.345,26.493 54.942,26.493 C54.11,26.493 53.681,26.012 53.681,25.141 L53.681,20.773 L55.839,20.773 L55.839,20.214 L53.681,20.214 L53.681,18.732 L53.031,18.732 L53.031,20.214 L51.783,20.214 L51.783,20.773 L53.031,20.773 L53.031,25.206 C53.031,26.35 53.681,27.052 54.877,27.052 Z M59.869,27 L62.17,21.111 L64.458,27 L65.069,27 L67.643,20.214 L67.045,20.214 L64.757,26.259 L62.456,20.214 L61.897,20.214 L59.583,26.272 L57.321,20.214 L56.697,20.214 L59.271,27 L59.869,27 Z M71.608,27.052 C73.558,27.052 75.001,25.622 75.001,23.607 C75.001,21.592 73.558,20.162 71.608,20.162 C69.658,20.162 68.215,21.592 68.215,23.607 C68.215,25.622 69.658,27.052 71.608,27.052 Z M71.608,26.467 C70.048,26.467 68.878,25.31 68.878,23.607 C68.878,21.904 70.048,20.747 71.608,20.747 C73.168,20.747 74.338,21.904 74.338,23.607 C74.338,25.31 73.168,26.467 71.608,26.467 Z M77.666,27 L77.666,23.464 C77.666,21.787 78.563,20.786 80.071,20.786 L80.227,20.799 L80.227,20.799 L80.227,20.162 C78.953,20.162 78.056,20.708 77.64,21.696 L77.64,20.214 L77.016,20.214 L77.016,27 L77.666,27 Z M82.671,27 L82.671,24.985 L84.439,23.373 L87.325,27 L88.131,27 L84.92,22.957 L87.845,20.214 L87.013,20.214 L82.671,24.179 L82.671,17.354 L82.021,17.354 L82.021,27 L82.671,27 Z" id="network" fill="#000000" fill-rule="nonzero"></path>
        <path d="M17.5382558,1.04120831 C17.8239841,0.876243001 18.1760159,0.876243001 18.4617442,1.04120831 L18.4617442,1.04120831 L30.7238215,8.12072196 L31.1855657,23.0795136 L18.4617442,30.9587917 L5.27617848,23.879278 C4.99045018,23.7143127 4.81443429,23.4094443 4.81443429,23.0795136 L4.81443429,23.0795136 L4.81443429,8.92048635 C4.81443429,8.59055573 4.99045018,8.28568727 5.27617848,8.12072196 L5.27617848,8.12072196 Z" id="Polygon-Copy-2" stroke="#000000" stroke-width="1.1"></path>
        <path d="M17.5382558,1.04120831 C17.8239841,0.876243001 18.1760159,0.876243001 18.4617442,1.04120831 L18.4617442,1.04120831 L30.7238215,8.12072196 L31.1855657,23.0795136 L18.4617442,30.9587917 L5.27617848,23.879278 C4.99045018,23.7143127 4.81443429,23.4094443 4.81443429,23.0795136 L4.81443429,23.0795136 L4.81443429,8.92048635 C4.81443429,8.59055573 4.99045018,8.28568727 5.27617848,8.12072196 L5.27617848,8.12072196 Z" id="Polygon-Copy-3" stroke="#000000" stroke-width="1.1" opacity="0.75" transform="translate(18.000000, 16.000000) rotate(30.000000) translate(-18.000000, -16.000000) "></path>
        <path d="M22.4441397,7.05257859 L22.5816363,7 L23.0269258,8.26427688 L22.9446464,8.29649891 C22.8974032,8.31500021 22.8511147,8.33377427 22.8057713,8.3528342 L22.7163421,8.39133905 C21.540678,8.90992218 21.0325433,9.63797642 21.0083585,10.8234912 L21.0076781,10.8681629 L21.0074463,10.9139691 L21.007422,11.7990262 L21.0512095,11.8043971 C22.3864369,11.9709892 23.6066536,12.2622651 24.6522447,12.6625401 L24.7497554,12.7003847 L24.8434095,12.7377243 C24.8840941,12.7539189 24.924414,12.7702478 24.9643674,12.7867096 L25.0831269,12.8364924 C25.1615648,12.869945 25.2385302,12.9039236 25.3140096,12.9384173 L25.4261127,12.9905425 C25.4816053,13.0167968 25.5362583,13.0433376 25.5900659,13.0701603 L25.6965524,13.1241799 C27.1890969,13.8947414 28,14.889008 28,15.9998204 C28,17.1759747 27.0908907,18.2214687 25.4259807,19.0091507 L25.3138687,19.0612795 C25.1628975,19.1302716 25.0059816,19.1972043 24.8432284,19.2619883 C23.7684009,19.68698 22.5271605,19.9979102 21.1830439,20.1778147 L21.0567335,20.1942963 L21.007422,20.200334 L21.0074463,21.0856718 C21.0074463,22.9294232 20.1482068,24.1845865 18.3967476,24.9041633 L18.3433999,24.9258047 L18.2889587,24.9473323 L18.1522808,25 L17.7068647,23.7353639 L17.7891441,23.7031419 C19.1277053,23.1789384 19.6997357,22.435759 19.725432,21.1761496 L19.7261124,21.1314779 L19.7263443,21.0856718 L19.7263429,20.316933 L19.620085,20.3252708 C19.2180706,20.354786 18.8160532,20.3732331 18.4140342,20.380612 L18.2130245,20.383379 L18.0120147,20.3843013 C17.5125171,20.3843013 17.0027871,20.3672371 16.5209666,20.3341399 L16.3614457,20.3225152 L16.297594,20.317264 L16.2976851,21.0856718 C16.2976851,22.9215772 15.4235223,24.1812726 13.6634757,24.903976 L13.6098698,24.9257119 L13.5551717,24.9473336 L13.4184889,25 L12.9730741,23.7353639 L13.0553535,23.7031419 C14.3939147,23.1789384 14.9659451,22.435759 14.9916414,21.1761496 L14.9923219,21.1314779 L14.9925536,21.0856718 L14.9925215,20.2005546 L14.9487904,20.1952438 C13.6135631,20.0286516 12.3933464,19.7373757 11.3477552,19.3371007 L11.2502445,19.2992561 L11.0962676,19.2376906 L10.9772165,19.1885908 L10.8603019,19.1386364 C9.02613416,18.3409856 8,17.2262889 8,15.9998204 C8,15.0057354 8.67412182,14.0850792 9.90631444,13.347123 L10.0034569,13.2899916 C10.1836148,13.1859356 10.3751003,13.0856662 10.5775752,12.9895018 L10.6891039,12.9374575 C10.8392565,12.8686131 10.9951891,12.8019705 11.1567715,12.7376525 C12.231599,12.3126608 13.4728394,12.0017306 14.8169561,11.8218261 L14.9432665,11.8053445 L14.9925215,11.7991365 L14.9925536,10.9139691 C14.9925536,9.06606439 15.8557853,7.81318478 17.6257668,7.09524648 L17.6796802,7.07365445 L17.734702,7.05217641 L17.8718754,7 L18.3171646,8.26427688 L18.2348853,8.29649891 C16.8963241,8.82070236 16.3242936,9.56388175 16.2985973,10.8234912 L16.2979169,10.8681629 L16.2976851,10.9139691 L16.297594,11.6826478 L16.4039444,11.67437 C16.8059587,11.6448548 17.2079761,11.6264077 17.6099952,11.6190289 L17.8110048,11.6162618 L18.0120147,11.6153394 C18.5115122,11.6153394 19.0212422,11.6324037 19.5030628,11.6655009 L19.6625836,11.6771256 L19.7263429,11.6823169 L19.7263443,10.9139691 C19.7263443,9.0517309 20.6028387,7.78999724 22.3897133,7.07410526 L22.4441397,7.05257859 Z M18.0120147,12.9664011 C17.5027517,12.9664011 17.0096013,12.9829436 16.5328185,13.0160019 L16.3744974,13.027633 L16.297594,13.0338508 L16.297594,18.96573 L16.348559,18.9699454 C16.8344374,19.0081154 17.3561703,19.0294918 17.8716238,19.0327895 L18.0120147,19.0332397 C18.5212776,19.0332397 19.014428,19.0166972 19.4912109,18.9836389 L19.6495319,18.9720077 L19.7263429,18.9656197 L19.7263429,13.0338508 L19.6754704,13.0296954 C19.189592,12.9915255 18.6678591,12.970149 18.1524056,12.9668513 L18.0120147,12.9664011 Z M14.9925215,18.8467042 L14.9925215,13.1527664 L14.9773822,13.154956 C13.7249877,13.3303961 12.5730237,13.6213425 11.6273523,14.0023583 L11.5739872,14.0238665 L11.4689007,14.0673046 C11.3995771,14.0964471 11.3317263,14.1259526 11.265377,14.1557927 L11.1669827,14.2008001 C11.1507725,14.2083419 11.1346571,14.2159038 11.1186368,14.2234853 L11.023661,14.2692054 C10.9923855,14.2845214 10.9614942,14.2999121 10.9309909,14.3153741 L10.8406479,14.3619699 L10.7526536,14.4089717 C10.6079655,14.4876343 10.4731525,14.5678995 10.3486611,14.649323 L10.2752084,14.6983127 C10.2631739,14.7064996 10.2512435,14.7146972 10.2394177,14.7229051 L10.169721,14.7722718 C9.61083579,15.1763801 9.30513147,15.6029738 9.30513147,15.9998204 C9.30513147,16.3642714 9.56296207,16.753811 10.0378695,17.1279542 L10.1024733,17.1777451 C10.1244343,17.1943093 10.1468205,17.2108396 10.1696284,17.2273323 L10.2393133,17.2766943 C10.2511371,17.2849014 10.2630654,17.2930982 10.2750977,17.3012843 L10.3485372,17.3502686 C10.4107714,17.3909759 10.4755849,17.4313931 10.5429219,17.4714647 L10.624934,17.5193812 C10.6526727,17.5352958 10.6808116,17.5511514 10.7093471,17.5669447 L10.7961397,17.6141337 L10.8852904,17.6609271 C10.915398,17.6764565 10.945895,17.6919164 10.9767778,17.7073033 L11.0705803,17.7532412 C11.0864058,17.7608598 11.1023269,17.7684592 11.1183431,17.7760391 L11.2155781,17.8212794 C11.231973,17.8287791 11.2484621,17.8362582 11.265045,17.8437165 L11.3656642,17.8882113 L11.4685127,17.9321824 C11.4858387,17.9394661 11.5032566,17.9467271 11.5207662,17.9539649 L11.6269184,17.9971105 C12.57576,18.3703017 13.6647045,18.6514074 14.8477699,18.8260253 L14.9925215,18.8467042 Z M21.0317787,13.1562518 L21.007422,13.1528767 L21.007422,18.8467042 L21.0226178,18.8446848 C22.2370609,18.6745611 23.3570681,18.3958254 24.2861122,18.0316715 L24.4260127,17.9757743 L24.5310992,17.9323362 L24.6339764,17.8883537 C24.6509374,17.8809791 24.6678053,17.8735827 24.6845799,17.866165 L24.7841029,17.8214058 L24.8813631,17.7761555 C24.9134036,17.7609926 24.9450635,17.7457514 24.976339,17.7304354 L25.0690091,17.6842668 C25.267281,17.5837642 25.4491656,17.4802533 25.6136823,17.3747097 L25.6883762,17.3258564 L25.7605823,17.2767357 C26.3636994,16.8581342 26.6948685,16.4128649 26.6948685,15.9998204 C26.6948685,15.5948748 26.3765591,15.1589558 25.795844,14.747598 L25.7249022,14.6983565 C25.7008375,14.6819844 25.6763565,14.6656551 25.6514628,14.6493722 L25.5755473,14.6006663 C25.5498317,14.5844797 25.5237071,14.5683432 25.4971769,14.5522601 L25.4163735,14.504175 C25.3616982,14.4722301 25.3054151,14.4405134 25.2475527,14.4090535 L25.1595783,14.3620596 C25.1447196,14.3542606 25.1297633,14.3464785 25.1147095,14.3387138 L25.0232222,14.2923375 C25.0077807,14.2846441 24.9922428,14.2769689 24.9766089,14.2693124 L24.8816569,14.2236017 C24.8656407,14.2160219 24.8495293,14.2084617 24.8333234,14.2009215 L24.734955,14.1559243 C24.6188747,14.1037166 24.4981991,14.0525344 24.3730816,14.0025303 C23.3919918,13.6166555 22.2613842,13.3293269 21.0317787,13.1562518 Z" id="newton" fill="#000000" fill-rule="nonzero"></path>
    </g>
</svg>